<svg xmlns="http://www.w3.org/2000/svg" width="31" height="31" viewBox="0 0 31 31">
  <defs>
    <style>
      .cls-1 {
        fill: #fff;
        fill-rule: evenodd;
      }
    </style>
  </defs>
  <path class="cls-1" d="M0.775,17.185a0.68,0.68,0,0,0,.607-0.741A8.521,8.521,0,0,1,1.348,15.5,0.674,0.674,0,0,0,0,15.5c0,0.337,0,.708.034,1.078a0.689,0.689,0,0,0,.674.607H0.775ZM15.5,0A15.511,15.511,0,0,0,4.043,5.088V0.674A0.674,0.674,0,0,0,2.7.674V7.413a0.676,0.676,0,0,0,.674.674h6.739a0.674,0.674,0,0,0,0-1.348H4.414A14.129,14.129,0,1,1,1.887,19.375,0.674,0.674,0,0,0,1.045,18.9a0.674,0.674,0,0,0-.472.842A15.509,15.509,0,1,0,15.5,0Zm0,7.75a0.676,0.676,0,0,0-.674.674v6.4a0.665,0.665,0,0,0,.2.472l7.379,7.379a0.652,0.652,0,0,0,.944,0,0.651,0.651,0,0,0,0-.944l-7.177-7.177V8.424A0.676,0.676,0,0,0,15.5,7.75Z"/>
</svg>
