<svg xmlns="http://www.w3.org/2000/svg" width="31" height="31" viewBox="0 0 31 31">
  <defs>
    <style>
      .cls-1 {
        fill: #fff;
        fill-rule: evenodd;
      }
    </style>
  </defs>
  <path class="cls-1" d="M20.294,14.082a37.115,37.115,0,0,0-3.776-1.716A8.465,8.465,0,0,1,14.446,11.2a1.813,1.813,0,0,1,.446-3.22,3.627,3.627,0,0,1,1.269-.263,9.6,9.6,0,0,1,4.77.948c0.753,0.365,1,.25,1.256-0.538,0.268-.832.491-1.677,0.74-2.516A0.88,0.88,0,0,0,22.36,4.44a12.091,12.091,0,0,0-3.01-.9c-1.365-.211-1.365-0.218-1.371-1.594C17.973,0,17.973,0,16.034,0,15.753,0,15.473,0,15.192,0c-0.906.026-1.059,0.186-1.084,1.1-0.013.41,0,.82-0.006,1.236-0.006,1.216-.013,1.2-1.174,1.62C10.122,4.984,8.387,6.9,8.2,9.978c-0.166,2.721,1.25,4.559,3.476,5.9a38.347,38.347,0,0,0,4.343,1.959,6.446,6.446,0,0,1,1.582.935,2.181,2.181,0,0,1-.517,3.816,5.183,5.183,0,0,1-2.787.365,12.4,12.4,0,0,1-4.247-1.274c-0.784-.41-1.014-0.3-1.282.551-0.23.736-.434,1.479-0.638,2.222-0.274,1-.172,1.236.778,1.7a13.52,13.52,0,0,0,3.827,1.1c1.033,0.166,1.065.211,1.078,1.287,0.006,0.487.006,0.98,0.013,1.466a0.869,0.869,0,0,0,.931.986c0.714,0.013,1.435.013,2.149-.006a0.819,0.819,0,0,0,.887-0.928c0-.666.032-1.338,0.006-2a1.058,1.058,0,0,1,.912-1.2,7.2,7.2,0,0,0,3.756-2.42A6.819,6.819,0,0,0,20.294,14.082Z"/>
</svg>
