<svg xmlns="http://www.w3.org/2000/svg" width="34" height="37" viewBox="0 0 34 37">
  <defs>
    <style>
      .cls-1 {
        fill: #fff;
        fill-rule: evenodd;
      }
    </style>
  </defs>
  <path id="Forma_1" data-name="Forma 1" class="cls-1" d="M17.5,2A16.5,16.5,0,1,0,34,18.5,16.519,16.519,0,0,0,17.5,2Zm0,2.147A14.354,14.354,0,0,1,30.85,23.774L14.635,15.732a1.079,1.079,0,0,0-.071-0.252,3.186,3.186,0,1,1,6.121-1.24,1.073,1.073,0,1,0,2.147,0,5.341,5.341,0,0,0-4.259-5.224V7.411a1.073,1.073,0,1,0-2.147,0V9.018a5.341,5.341,0,0,0-4.259,5.224q0,0.136.007,0.271L5.226,11.066A14.359,14.359,0,0,1,17.5,4.147Zm0,28.707A14.352,14.352,0,0,1,4.252,12.979l15.815,7.843a1.075,1.075,0,0,0,.1.194,3.186,3.186,0,1,1-5.853,1.742,1.073,1.073,0,0,0-2.147,0,5.341,5.341,0,0,0,4.259,5.224v1.607a1.073,1.073,0,0,0,2.147,0V27.983a5.336,5.336,0,0,0,4.227-5.8L29.91,25.7A14.361,14.361,0,0,1,17.5,32.854Z"/>
</svg>
