<svg xmlns="http://www.w3.org/2000/svg" width="31" height="31" viewBox="0 0 31 31">
  <defs>
    <style>
      .cls-1 {
        fill: #fff;
        fill-rule: evenodd;
      }
    </style>
  </defs>
  <path id="Forma_1" data-name="Forma 1" class="cls-1" d="M15.5,9.535a6.027,6.027,0,1,0,6.008,6.509c0.013-.158.019-0.32,0.019-0.481A6.034,6.034,0,0,0,15.5,9.535ZM19.914,16a4.435,4.435,0,1,1,.021-0.433C19.935,15.708,19.928,15.854,19.914,16Zm10.374-1.933H27.815a0.1,0.1,0,0,1-.1-0.108A12.329,12.329,0,0,0,17.156,3.35a0.2,0.2,0,0,1-.219-0.169V0.713A0.715,0.715,0,0,0,16.225,0H14.775a0.715,0.715,0,0,0-.713.713V3.18a0.219,0.219,0,0,1-.219.169A12.33,12.33,0,0,0,3.284,13.933a0.12,0.12,0,0,1-.109.13H0.713A0.715,0.715,0,0,0,0,14.775v1.449a0.715,0.715,0,0,0,.713.713H3.161a0.118,0.118,0,0,1,.108.133A12.328,12.328,0,0,0,13.924,27.785a0.147,0.147,0,0,1,.139.1v2.4a0.715,0.715,0,0,0,.713.713h1.449a0.715,0.715,0,0,0,.713-0.713v-2.4a0.166,0.166,0,0,1,.159-0.107,12.328,12.328,0,0,0,10.639-10.75,0.085,0.085,0,0,1,.093-0.095h2.459A0.715,0.715,0,0,0,31,16.225V14.775A0.715,0.715,0,0,0,30.287,14.063ZM16.937,25.317v-0.4a0.715,0.715,0,0,0-.713-0.713H14.775a0.715,0.715,0,0,0-.713.713v0.4c0,0.119-.158.109-0.236,0.1a10,10,0,0,1-8.2-8.344c-0.007-.043-0.041-0.131.055-0.131h0.4a0.715,0.715,0,0,0,.713-0.713V14.775a0.715,0.715,0,0,0-.713-0.713H5.7a0.056,0.056,0,0,1-.062-0.078,10,10,0,0,1,8.233-8.279c0.065-.011.2-0.039,0.2,0.048V6.081a0.715,0.715,0,0,0,.713.713h1.449a0.715,0.715,0,0,0,.713-0.713V5.754c0-.083.139-0.058,0.209-0.046a10,10,0,0,1,8.2,8.159c0.011,0.065.034,0.2-.095,0.2H24.919a0.715,0.715,0,0,0-.713.713v1.449a0.715,0.715,0,0,0,.713.713h0.35c0.126,0,.11.117,0.1,0.176a10,10,0,0,1-8.231,8.305C17.072,25.429,16.937,25.44,16.937,25.317Z"/>
</svg>
